<?xml version="1.0" standalone="no"?>
<!DOCTYPE svg PUBLIC "-//W3C//DTD SVG 20010904//EN"
 "http://www.w3.org/TR/2001/REC-SVG-20010904/DTD/svg10.dtd">
<svg version="1.0" xmlns="http://www.w3.org/2000/svg"
 width="700.000000pt" height="700.000000pt" viewBox="0 0 700.000000 700.000000"
 preserveAspectRatio="xMidYMid meet">
<metadata>
Created by potrace 1.14, written by Peter Selinger 2001-2017
</metadata>
<g transform="translate(0.000000,700.000000) scale(0.100000,-0.100000)"
fill="#000000" stroke="none">
<path d="M3424 6226 c-29 -29 -34 -41 -34 -79 0 -80 70 -132 145 -107 49 16
75 53 75 107 0 38 -5 50 -34 79 -28 28 -42 34 -76 34 -34 0 -48 -6 -76 -34z"/>
<path d="M2392 6143 c-104 -51 -64 -213 53 -213 58 0 115 55 115 110 0 39 -31
88 -65 104 -41 20 -61 20 -103 -1z"/>
<path d="M4503 6144 c-33 -16 -63 -66 -63 -104 0 -55 57 -110 115 -110 118 0
157 163 51 214 -42 20 -62 20 -103 0z"/>
<path d="M3386 5563 c-139 -157 -219 -260 -331 -428 -479 -720 -669 -1568
-544 -2430 84 -582 315 -1133 674 -1604 66 -87 110 -139 252 -300 59 -67 53
-65 -142 29 -838 406 -1482 1142 -1781 2036 -106 319 -174 700 -174 983 0 58
-4 111 -8 117 -16 26 -342 133 -540 178 -230 53 -490 86 -679 86 -101 0 -113
-2 -113 -17 0 -84 25 -375 41 -486 55 -382 185 -785 360 -1116 502 -947 1392
-1608 2433 -1806 241 -46 383 -58 661 -59 272 0 438 14 655 55 1058 202 1944
857 2449 1810 85 162 155 327 221 529 106 318 153 583 175 978 l7 112 -114 0
c-217 0 -505 -41 -763 -107 -130 -33 -342 -101 -426 -137 l-36 -15 -6 -173
c-45 -1250 -812 -2415 -1952 -2968 -195 -94 -201 -96 -142 -29 142 161 186
213 252 300 582 764 821 1734 664 2689 -108 657 -408 1267 -878 1788 -51 56
-97 102 -101 102 -5 0 -56 -53 -114 -117z"/>
</g>
</svg>
